<?xml version="1.0" encoding="UTF-8"?>
<svg width="111px" height="26px" viewBox="0 0 111 26" version="1.1" xmlns="http://www.w3.org/2000/svg" xmlns:xlink="http://www.w3.org/1999/xlink">
    <!-- Generator: Sketch 53.2 (72643) - https://sketchapp.com -->
    <title>分组</title>
    <desc>Created with Sketch.</desc>
    <defs>
        <polygon id="path-1" points="0.000110891089 0.000110891089 25.5050614 0.000110891089 25.5050614 25.5049505 0.000110891089 25.5049505"></polygon>
    </defs>
    <g id="Page-1" stroke="none" stroke-width="1" fill="none" fill-rule="evenodd">
        <g id="分组">
            <path d="M56.9617584,12.9762535 L50.9758574,12.9762535 C49.8658376,12.9762535 48.8855604,12.6624317 47.9784713,11.949402 C47.845402,11.8440554 47.7655604,11.6799366 47.7655604,11.5058376 L47.7655604,7.69894653 C47.7655604,6.52904554 46.8141149,5.5776 45.6442139,5.5776 C45.1208079,5.5776 44.9256396,6.03890693 44.9256396,6.32944158 C44.9256396,6.81070891 45.2705109,7.07019406 45.5943129,7.07019406 C45.9680158,7.07019406 46.2729663,7.37403564 46.2729663,7.74884752 L46.2729663,11.5058376 C46.2729663,12.2776396 46.0633822,12.8287683 45.8881743,13.1547881 C45.6652832,13.567303 45.7406891,13.9576396 46.0877782,14.2004911 C46.4492832,14.4533228 46.9261149,14.289204 47.1434614,13.9776 C47.2210851,13.8667089 47.2565703,13.7757782 47.3419564,13.5573228 L47.3552634,13.5251644 C47.3685703,13.4907881 47.3962931,13.4652832 47.4317782,13.4541941 C47.4506297,13.4475406 47.4894416,13.4408871 47.5293624,13.467501 C48.5772832,14.1627881 49.7050455,14.4688475 50.9758574,14.4688475 L56.9617584,14.4688475 C57.3731644,14.4688475 57.7080554,14.1339564 57.7080554,13.7225505 C57.7080554,13.3111446 57.3731644,12.9762535 56.9617584,12.9762535" id="Fill-1" fill="#424242"></path>
            <path d="M53.8402851,8.42040396 C53.8402851,8.29509703 53.942305,8.19307723 54.0676119,8.19307723 L54.4756911,8.19307723 C54.887097,8.19307723 55.2219881,7.85818614 55.2219881,7.4467802 C55.2219881,7.03537426 54.887097,6.70048317 54.4756911,6.70048317 L54.0676119,6.70048317 C53.942305,6.70048317 53.8402851,6.59846337 53.8402851,6.47315644 L53.8402851,4.82420594 C53.8402851,4.74103762 53.9079287,4.67339406 53.991097,4.67339406 L54.8205624,4.67339406 C55.2918495,4.67339406 55.6755327,5.05707723 55.6755327,5.52947327 L55.6755327,9.42618614 C55.6755327,9.89858218 55.2918495,10.2822653 54.8205624,10.2822653 L53.991097,10.2822653 C53.9079287,10.2822653 53.8402851,10.2146218 53.8402851,10.1314535 L53.8402851,8.42040396 Z M52.3476911,6.47315644 C52.3476911,6.59846337 52.2456713,6.70048317 52.1203644,6.70048317 L51.7122851,6.70048317 C51.3008792,6.70048317 50.9659881,7.03537426 50.9659881,7.4467802 C50.9659881,7.85818614 51.3008792,8.19307723 51.7122851,8.19307723 L52.1203644,8.19307723 C52.2456713,8.19307723 52.3476911,8.29509703 52.3476911,8.42040396 L52.3476911,10.1314535 C52.3476911,10.2146218 52.2800475,10.2822653 52.1968792,10.2822653 L50.7907802,10.2822653 C50.6377505,10.2822653 50.5124436,10.1569584 50.5124436,10.0039287 L50.5124436,4.95394851 C50.5124436,4.79870099 50.6377505,4.67339406 50.7918891,4.67339406 L52.1968792,4.67339406 C52.2800475,4.67339406 52.3476911,4.74103762 52.3476911,4.82420594 L52.3476911,6.47315644 Z M49.7661465,11.7748594 L54.8205624,11.7748594 C56.1146614,11.7748594 57.1681267,10.7213941 57.1681267,9.42729505 L57.1681267,5.52947327 C57.1681267,4.23426535 56.1146614,3.1808 54.8205624,3.1808 L53.991097,3.1808 C53.9079287,3.1808 53.8402851,3.11315644 53.8402851,3.02998812 L53.8402851,2.48329505 C53.8402851,2.07188911 53.5053941,1.73810693 53.0939881,1.73810693 C52.6825822,1.73810693 52.3476911,2.07188911 52.3476911,2.48329505 L52.3476911,3.02998812 C52.3476911,3.11315644 52.2800475,3.1808 52.1968792,3.1808 L49.7672554,3.17969109 C49.3547406,3.17969109 49.0198495,3.51569109 49.0198495,3.92709703 L49.0198495,11.0285624 C49.0198495,11.4399683 49.3547406,11.7748594 49.7661465,11.7748594 L49.7661465,11.7748594 Z" id="Fill-3" fill="#424242"></path>
            <path d="M64.958004,9.73346535 C65.4148752,9.73346535 65.7874693,9.3619802 65.7874693,8.904 L65.7874693,2.57322772 C65.7874693,2.11635644 65.4148752,1.74376238 64.958004,1.74376238 C64.5000238,1.74376238 64.1285386,2.11635644 64.1285386,2.57322772 L64.1285386,8.904 C64.1285386,9.3619802 64.5000238,9.73346535 64.958004,9.73346535" id="Fill-5" fill="#424242"></path>
            <path d="M61.6941465,5.46404752 C61.8305426,5.32432475 61.9059485,5.14024554 61.9059485,4.94285941 C61.9059485,4.74436436 61.8283248,4.55695842 61.6874931,4.41612673 C61.5466614,4.27529505 61.3592554,4.19656238 61.1596515,4.19656238 C60.9600475,4.19656238 60.7726416,4.27529505 60.6318099,4.41612673 L59.2423446,6.40773069 C59.1048396,6.54856238 59.0305426,6.73264158 59.0305426,6.92891881 C59.0305426,7.12852277 59.1070574,7.31592871 59.2478891,7.4567604 C59.3887208,7.59759208 59.5772356,7.67521584 59.7768396,7.67521584 C59.9753347,7.67521584 60.1627406,7.59759208 60.3035723,7.4567604 L61.6941465,5.46404752 Z" id="Fill-7" fill="#424242"></path>
            <path d="M69.4321267,4.42932277 L69.4199287,4.41490693 C69.1293941,4.12437228 68.6558891,4.12437228 68.3653545,4.41490693 C68.2234139,4.55573861 68.1457901,4.74314455 68.1457901,4.94274851 C68.1457901,5.13902574 68.221196,5.32310495 68.3575921,5.46393663 L69.7359683,7.44112475 L69.7481663,7.45554059 C69.888998,7.59637228 70.076404,7.67510495 70.2760079,7.67510495 C70.474503,7.67510495 70.6630178,7.59637228 70.8038495,7.45554059 C70.9446812,7.31581782 71.022305,7.12841188 71.022305,6.92769901 C71.022305,6.73253069 70.946899,6.54734257 70.810503,6.4076198 L69.4321267,4.42932277 Z" id="Fill-9" fill="#424242"></path>
            <path d="M69.6432634,9.12811089 L69.6366099,9.12256634 C69.3449663,8.8952396 68.9246891,8.91852673 68.6574416,9.17690297 C67.8035802,10.0052594 65.2630653,12.1055366 60.6466693,12.9860119 C60.2441347,13.0625267 59.9813228,13.4373386 60.0456396,13.8387644 C60.0789069,14.0394772 60.1886891,14.2135762 60.3550257,14.3311208 C60.4814416,14.4198337 60.6289267,14.4664079 60.7797386,14.4664079 C60.8263129,14.4664079 60.8728871,14.4619723 60.9194614,14.453101 C65.9838574,13.4927842 68.7683327,11.1662891 69.7075802,10.2447842 C69.859501,10.0950812 69.9404515,9.88660594 69.9282535,9.67258614 C69.9171644,9.45856634 69.8129267,9.26007129 69.6432634,9.12811089" id="Fill-11" fill="#424242"></path>
            <path d="M83.4202614,12.9627248 L81.8777663,12.9627248 C81.4386376,12.9627248 81.0826772,12.6056554 81.0826772,12.1676356 L81.0826772,2.49238812 C81.0826772,2.08098218 80.7466772,1.74609109 80.3352713,1.74609109 C79.9238653,1.74609109 79.5889743,2.08098218 79.5889743,2.49238812 L79.5889743,12.3395168 C79.5889743,13.5060911 80.5393109,14.4553188 81.7058851,14.4553188 L83.4202614,14.4553188 C83.8316673,14.4553188 84.1665584,14.1204277 84.1665584,13.7090218 C84.1665584,13.2976158 83.8316673,12.9627248 83.4202614,12.9627248" id="Fill-13" fill="#424242"></path>
            <path d="M75.1780594,1.73766337 C74.7666535,1.73766337 74.4317624,2.07255446 74.4317624,2.4839604 L74.4317624,9.37140594 C74.4317624,10.1487525 73.9981782,11.013703 73.2119604,11.8054653 C72.6752475,12.345505 72.0276436,12.7890693 71.4343762,13.0230495 C71.1105743,13.1505743 70.9220594,13.4976634 70.9874851,13.8480792 C71.0285149,14.0698614 71.1649109,14.2594851 71.3634059,14.3681584 C71.4731881,14.4280396 71.5951683,14.4590891 71.7160396,14.4590891 C71.8080792,14.4590891 71.8990099,14.4424554 71.9866139,14.4069703 C73.8806337,13.6484752 75.9243564,11.5071683 75.9243564,9.37140594 L75.9243564,2.4839604 C75.9243564,2.07255446 75.5894653,1.73766337 75.1780594,1.73766337" id="Fill-15" fill="#424242"></path>
            <path d="M96.2084436,2.61647525 L95.2536713,2.61647525 C95.1815921,2.61647525 95.1228198,2.55770297 95.1228198,2.48562376 C95.1228198,2.07421782 94.7879287,1.73932673 94.3765228,1.73932673 C93.9651168,1.73932673 93.6302257,2.07421782 93.6302257,2.48562376 C93.6302257,2.55770297 93.5714535,2.61647525 93.4993743,2.61647525 L88.2276119,2.61647525 C88.1555327,2.61647525 88.0967604,2.55770297 88.0967604,2.48562376 C88.0967604,2.07421782 87.7618693,1.73932673 87.3504634,1.73932673 C86.9390574,1.73932673 86.6041663,2.07421782 86.6041663,2.48562376 C86.6041663,2.55770297 86.5453941,2.61647525 86.4733149,2.61647525 L85.2934337,2.61647525 C84.8820277,2.61647525 84.5471366,2.95136634 84.5471366,3.36277228 C84.5471366,3.77417822 84.8820277,4.10906931 85.2934337,4.10906931 L86.4988198,4.10906931 C86.5564832,4.10906931 86.6041663,4.15675248 86.6041663,4.2199604 C86.6041663,4.63136634 86.9390574,4.96736634 87.3504634,4.96736634 C87.7618693,4.96736634 88.0967604,4.63136634 88.0967604,4.21441584 C88.0967604,4.15675248 88.1444436,4.10906931 88.2021069,4.10906931 L93.5248792,4.10906931 C93.5825426,4.10906931 93.6302257,4.15675248 93.6302257,4.2199604 C93.6302257,4.63136634 93.9651168,4.96736634 94.3765228,4.96736634 C94.7879287,4.96736634 95.1228198,4.63136634 95.1228198,4.21441584 C95.1228198,4.15675248 95.1693941,4.10906931 95.2281663,4.10906931 L96.2084436,4.10906931 C96.6198495,4.10906931 96.9547406,3.77417822 96.9547406,3.36277228 C96.9547406,2.95136634 96.6198495,2.61647525 96.2084436,2.61647525" id="Fill-17" fill="#424242"></path>
            <path d="M89.8906455,7.21723564 C89.847398,7.91917624 89.7076752,8.58895842 89.473695,9.20773069 C89.4182495,9.35299802 89.2763089,9.45058218 89.1188436,9.45058218 L87.5186851,9.45058218 C87.3822891,9.45058218 87.2725069,9.33969109 87.2725069,9.20440396 L87.2725069,7.32590891 C87.2725069,7.1717703 87.3978139,7.04646337 87.5530614,7.04646337 L89.7320713,7.04646337 C89.7775366,7.04646337 89.8185663,7.06309703 89.847398,7.09414653 C89.8784475,7.12630495 89.8928634,7.17066139 89.8906455,7.21723564 M94.4405069,7.7417505 L94.4405069,9.20440396 C94.4405069,9.33969109 94.3296158,9.45058218 94.1932198,9.45058218 L91.0516752,9.45058218 C91.0261703,9.45058218 91.0117545,9.43394851 91.0062099,9.42729505 C91.0006653,9.41953267 90.9917941,9.40289901 90.9995564,9.38072079 C91.2202297,8.69430495 91.3510812,7.95798812 91.3865663,7.19394851 C91.391002,7.11299802 91.4619723,7.04646337 91.5440317,7.04646337 L93.7441109,7.04646337 C94.1277941,7.04646337 94.4405069,7.35806733 94.4405069,7.7417505 M96.2081109,9.45058218 L96.082804,9.45058218 C95.9996356,9.45058218 95.9319921,9.38293861 95.9319921,9.29866139 L95.9319921,7.7417505 C95.9319921,6.53525545 94.9506059,5.55386931 93.7441109,5.55386931 L91.5052198,5.55386931 C91.4464475,5.55386931 91.3998733,5.50618614 91.3987644,5.44297822 C91.3976554,5.03268119 91.0638733,4.69889901 90.6524673,4.69889901 C90.2410614,4.69889901 89.9072792,5.0337901 89.9072792,5.44741386 C89.9072792,5.50618614 89.859596,5.55386931 89.8008238,5.55386931 L86.5273188,5.55386931 C86.114804,5.55386931 85.7799129,5.8887604 85.7799129,6.30016634 L85.7799129,9.22325545 C85.7799129,9.34856238 85.6778931,9.45058218 85.5525861,9.45058218 L85.293101,9.45058218 C84.881695,9.45058218 84.546804,9.78436436 84.546804,10.1968792 C84.546804,10.6082851 84.881695,10.9431762 85.293101,10.9431762 L88.1784871,10.9431762 C88.2350416,10.9431762 88.2827248,10.9742257 88.3060119,11.0252356 C88.329299,11.0773545 88.3215366,11.1350178 88.2838337,11.1771564 C87.5120317,12.0609584 86.624903,12.7396119 86.0172198,13.0578693 C85.6756752,13.236404 85.5270812,13.6544634 85.679002,14.0093149 C85.7599525,14.2011564 85.9185267,14.3508594 86.114804,14.4207208 C86.1957545,14.4495525 86.2811406,14.4639683 86.3654178,14.4639683 C86.4851802,14.4639683 86.6049426,14.4351366 86.7125069,14.3785822 C87.7160713,13.8529584 89.125497,12.7784238 90.1434772,11.1904634 C90.2432792,11.0352158 90.4129426,10.9431762 90.5970218,10.9431762 L96.2081109,10.9431762 C96.6195168,10.9431762 96.9555168,10.6082851 96.9555168,10.1968792 C96.9555168,9.78436436 96.6195168,9.45058218 96.2081109,9.45058218" id="Fill-19" fill="#424242"></path>
            <path d="M94.8146535,12.0671683 C94.6738218,11.9263366 94.4864158,11.8487129 94.2868119,11.8487129 C94.0872079,11.8487129 93.899802,11.9263366 93.7589703,12.0671683 C93.4684356,12.357703 93.4684356,12.8312079 93.7589703,13.1228515 L94.8933861,14.2561584 C95.0386535,14.4014257 95.2293861,14.4746139 95.4201188,14.4746139 C95.6119604,14.4746139 95.8026931,14.4014257 95.9479604,14.2561584 C96.239604,13.9645149 96.239604,13.4921188 95.9479604,13.2004752 L94.8146535,12.0671683 Z" id="Fill-21" fill="#424242"></path>
            <path d="M99.6715723,4.00915644 C99.8168396,4.15442376 100.008681,4.22761188 100.199414,4.22761188 C100.390147,4.22761188 100.581988,4.15442376 100.727255,4.00915644 C100.868087,3.86832475 100.945711,3.68091881 100.945711,3.48131485 C100.945711,3.28171089 100.868087,3.09430495 100.727255,2.95347327 L99.9066614,2.13398812 C99.7658297,1.99315644 99.5795327,1.91442376 99.3799287,1.91442376 C99.1803248,1.91442376 98.9929188,1.99315644 98.8520871,2.13398812 C98.5615525,2.42452277 98.5615525,2.89802772 98.8520871,3.18967129 L99.6715723,4.00915644 Z" id="Fill-23" fill="#424242"></path>
            <path d="M46.6036436,4.00860198 C46.7444752,4.14943366 46.9318812,4.22705743 47.1314851,4.22705743 C47.3310891,4.22705743 47.518495,4.14943366 47.6593267,4.00860198 C47.8001584,3.8677703 47.8777822,3.68036436 47.8777822,3.4807604 C47.8777822,3.28115644 47.8001584,3.0937505 47.6593267,2.95291881 L46.8387327,2.13343366 C46.548198,1.8417901 46.0746931,1.8417901 45.7841584,2.13343366 C45.4936238,2.42396832 45.4936238,2.89747327 45.7841584,3.18911683 L46.6036436,4.00860198 Z" id="Fill-25" fill="#424242"></path>
            <path d="M101.585663,12.9708198 L101.226376,12.9708198 C101.073347,12.9708198 100.94804,12.8455129 100.94804,12.6924832 L100.94804,7.71236436 C100.94804,6.59458218 100.037624,5.68416634 98.9198416,5.68416634 L98.616,5.68416634 C98.2045941,5.68416634 97.869703,6.01905743 97.869703,6.43046337 C97.869703,6.84186931 98.2045941,7.1767604 98.616,7.1767604 L98.9198416,7.1767604 C99.2148119,7.1767604 99.4554455,7.41739406 99.4554455,7.71236436 L99.4554455,13.1704238 C99.4554455,13.8834535 100.035406,14.4634139 100.748436,14.4634139 L101.585663,14.4634139 C101.997069,14.4634139 102.33196,14.1285228 102.33196,13.7171168 C102.33196,13.3057109 101.997069,12.9708198 101.585663,12.9708198" id="Fill-27" fill="#424242"></path>
            <path d="M108.574352,6.30925941 L108.574352,6.86038812 C108.574352,6.95686337 108.49562,7.03559604 108.398036,7.03559604 L104.965956,7.03559604 C104.868372,7.03559604 104.78964,6.95686337 104.78964,6.86038812 L104.78964,5.94997228 C104.78964,5.85238812 104.868372,5.77365545 104.965956,5.77365545 L108.038749,5.77365545 C108.333719,5.77365545 108.574352,6.01428911 108.574352,6.30925941 M110.217758,7.03670495 L110.217758,7.03559604 C110.13459,7.03559604 110.066947,6.96906139 110.066947,6.88589307 L110.066947,6.30925941 C110.066947,5.19147723 109.156531,4.28106139 108.038749,4.28106139 L104.965956,4.28106139 C104.868372,4.28106139 104.78964,4.20232871 104.78964,4.10585347 L104.78964,3.60240792 C104.78964,3.50593267 104.868372,3.42609109 104.965956,3.42609109 L109.343937,3.42609109 C109.755343,3.42609109 110.091343,3.09230891 110.091343,2.68090297 C110.091343,2.26838812 109.755343,1.93460594 109.343937,1.93460594 L103.022036,1.93460594 C102.61063,1.93460594 102.27463,2.26838812 102.27463,2.68090297 C102.27463,3.09230891 102.61063,3.42609109 103.022036,3.42609109 L103.146234,3.42609109 C103.229402,3.42609109 103.297046,3.49373465 103.297046,3.57801188 L103.297046,4.1302495 C103.297046,4.21341782 103.229402,4.28106139 103.146234,4.28106139 L103.022036,4.28106139 C102.61063,4.28106139 102.27463,4.61595248 102.27463,5.02735842 C102.27463,5.43876436 102.61063,5.77365545 103.022036,5.77365545 L103.146234,5.77365545 C103.229402,5.77365545 103.297046,5.84129901 103.297046,5.92446733 L103.297046,6.88589307 C103.297046,6.96906139 103.229402,7.03559604 103.146234,7.03559604 L103.022036,7.03559604 C102.61063,7.03559604 102.27463,7.37159604 102.27463,7.78300198 C102.27463,8.19440792 102.61063,8.5281901 103.022036,8.5281901 L110.190036,8.5281901 C110.601442,8.5281901 110.935224,8.19440792 110.935224,7.78300198 C110.935224,7.38046733 110.615857,7.05112079 110.217758,7.03670495" id="Fill-29" fill="#424242"></path>
            <path d="M108.574352,11.6431208 L108.574352,12.2829624 C108.574352,12.6666455 108.262749,12.9793584 107.879065,12.9793584 L105.105679,12.9793584 C104.93158,12.9793584 104.78964,12.8374178 104.78964,12.6622099 L104.78964,11.2638733 C104.78964,11.0897743 104.93158,10.9478337 105.105679,10.9478337 L107.879065,10.9478337 C108.262749,10.9478337 108.574352,11.2594376 108.574352,11.6431208 M107.879065,9.4552396 L104.03558,9.4552396 C103.62861,9.4552396 103.297046,9.78680396 103.297046,10.1937743 L103.297046,13.7334178 C103.297046,14.1403881 103.62861,14.4719525 104.03558,14.4719525 L107.879065,14.4719525 C109.08556,14.4719525 110.066947,13.4905663 110.066947,12.2829624 L110.066947,11.6431208 C110.066947,10.4366257 109.08556,9.4552396 107.879065,9.4552396" id="Fill-31" fill="#424242"></path>
            <path d="M42.7256713,3.67725941 L41.272998,3.67725941 C41.186503,3.67725941 41.1521267,3.61072475 41.1432554,3.58965545 C41.1343842,3.56969505 41.1122059,3.49872475 41.174305,3.43662574 L41.4215921,3.18933861 C41.7121267,2.89769505 41.7121267,2.4241901 41.4215921,2.13365545 C41.2807604,1.99282376 41.0933545,1.9152 40.8948594,1.9152 C40.6941465,1.9152 40.5078495,1.99282376 40.3670178,2.13365545 L38.8954931,3.6051802 C38.8489188,3.65064554 38.7857109,3.67725941 38.7213941,3.67725941 L36.0777505,3.67725941 C36.0134337,3.67725941 35.9502257,3.65064554 35.9047604,3.6051802 L34.4321267,2.13365545 C34.292404,1.99282376 34.104998,1.9152 33.9053941,1.9152 C33.7057901,1.9152 33.5183842,1.99282376 33.3775525,2.13365545 C33.0870178,2.4241901 33.0870178,2.89769505 33.3775525,3.18933861 L33.6248396,3.43662574 C33.6869386,3.49872475 33.6647604,3.56969505 33.6558891,3.58965545 C33.6470178,3.61072475 33.6126416,3.67725941 33.5261465,3.67725941 L32.0734733,3.67725941 C31.6620673,3.67725941 31.3271762,4.0121505 31.3271762,4.42355644 C31.3271762,4.83496238 31.6620673,5.16985347 32.0734733,5.16985347 L42.7256713,5.16985347 C43.1381861,5.16985347 43.4719683,4.83496238 43.4719683,4.42355644 C43.4719683,4.0121505 43.1381861,3.67725941 42.7256713,3.67725941" id="Fill-33" fill="#424242"></path>
            <path d="M41.9242614,9.7464396 C42.3356673,9.7464396 42.6705584,9.41154851 42.6705584,9.00014257 C42.6705584,8.58873663 42.3356673,8.25384554 41.9242614,8.25384554 L32.8744396,8.25384554 C32.4630337,8.25384554 32.1292515,8.58873663 32.1292515,9.00014257 C32.1292515,9.41154851 32.4630337,9.7464396 32.8744396,9.7464396 L41.9242614,9.7464396 Z" id="Fill-35" fill="#424242"></path>
            <path d="M42.7256713,12.9740356 L32.0734733,12.9740356 C31.6620673,12.9740356 31.3271762,13.3089267 31.3271762,13.7203327 C31.3271762,14.1317386 31.6620673,14.4666297 32.0734733,14.4666297 L42.7256713,14.4666297 C43.1381861,14.4666297 43.4719683,14.1317386 43.4719683,13.7203327 C43.4719683,13.3089267 43.1381861,12.9740356 42.7256713,12.9740356" id="Fill-37" fill="#424242"></path>
            <path d="M34.7878653,22.2389861 L33.9761426,22.2389861 C33.4083802,22.2389861 32.9459644,21.7765703 32.9459644,21.2088079 L32.9459644,18.3145505 C32.9459644,17.9885307 32.6809347,17.723501 32.3549149,17.723501 C32.028895,17.723501 31.7627564,17.9885307 31.7627564,18.3145505 L31.7627564,21.2088079 C31.7627564,22.4297188 32.7552317,23.4221941 33.9761426,23.4221941 L34.7878653,23.4221941 C35.1138851,23.4221941 35.3789149,23.1571644 35.3789149,22.8300356 C35.3789149,22.5040158 35.1138851,22.2389861 34.7878653,22.2389861" id="Fill-39" fill="#424242"></path>
            <path d="M92.1745584,22.2389861 L91.3628356,22.2389861 C90.7950733,22.2389861 90.3326574,21.7765703 90.3326574,21.2088079 L90.3326574,18.3145505 C90.3326574,17.9885307 90.0676277,17.723501 89.7416079,17.723501 C89.4155881,17.723501 89.1494495,17.9885307 89.1494495,18.3145505 L89.1494495,21.2088079 C89.1494495,22.4297188 90.1419248,23.4221941 91.3628356,23.4221941 L92.1745584,23.4221941 C92.5005782,23.4221941 92.7656079,23.1571644 92.7656079,22.8300356 C92.7656079,22.5040158 92.5005782,22.2389861 92.1745584,22.2389861" id="Fill-41" fill="#424242"></path>
            <path d="M41.2052436,20.7175604 C41.1852832,20.7463921 41.1531248,20.7619168 41.1176396,20.7574812 C40.8980752,20.7319762 40.6796198,20.7186693 40.4644911,20.7186693 C40.3092436,20.7186693 40.1562139,20.7253228 40.0042931,20.7397386 C39.9699168,20.7419564 39.9377584,20.7264317 39.9189069,20.6987089 C39.9111446,20.685402 39.893402,20.6499168 39.9155802,20.6088871 L40.4622733,19.5942337 C40.4844515,19.553204 40.5232634,19.5476594 40.5387881,19.5476594 C40.5565307,19.5487683 40.5942337,19.552095 40.6175208,19.5920158 L41.2074614,20.6255208 C41.2318574,20.6687683 41.2141149,20.7042535 41.2052436,20.7175604 L41.2052436,20.7175604 Z M41.1109861,18.0728079 C40.9923327,17.8654416 40.7661149,17.735699 40.515501,17.7345901 C40.2704317,17.7368079 40.0453228,17.872095 39.929996,18.0872238 L38.2244911,21.2542733 L38.2311446,21.2576 C38.1734812,21.3485307 38.0248871,21.6246495 37.5524911,22.5029069 C37.3994614,22.7856792 37.4804119,23.1505109 37.7565307,23.3157386 C37.8496792,23.3722931 37.9539168,23.4000158 38.0592634,23.4000158 C38.1324515,23.4000158 38.2067485,23.3856 38.2788277,23.3578772 C38.4152238,23.3046495 38.523897,23.1948673 38.5937584,23.0651248 L38.9896396,22.3288079 C39.0550653,22.2079366 39.1659564,22.1192238 39.2968079,22.0781941 C40.1140752,21.8220356 40.975699,21.8397782 41.9149465,22.1314218 C42.0369267,22.1702337 42.1389465,22.2556198 42.2021545,22.3665109 L42.5470257,22.9686495 C42.6146693,23.0884119 42.7166891,23.1882139 42.8442139,23.2403327 C43.017204,23.3101941 43.2057188,23.297996 43.3642931,23.2070653 C43.501798,23.1283327 43.6004911,23.0019168 43.6415208,22.8488871 C43.6836594,22.6969663 43.6625901,22.5372832 43.5849663,22.4008871 L41.1109861,18.0728079 Z" id="Fill-43" fill="#424242"></path>
            <path d="M55.3904317,22.2611644 L54.3835406,22.2611644 C54.2626693,22.2611644 54.1650851,22.1635802 54.1650851,22.0427089 L54.1650851,19.1262733 C54.1650851,19.0065109 54.2626693,18.9089267 54.3835406,18.9089267 L55.4425505,18.9089267 C55.9049663,18.9089267 56.3363327,19.0941149 56.6568079,19.4301149 C56.9761743,19.7661149 57.1391842,20.2063525 57.1170059,20.6687683 C57.0726495,21.5625505 56.3141545,22.2611644 55.3904317,22.2611644 M55.4425505,17.7257188 L53.4121347,17.7257188 C53.1748277,17.7257188 52.9818772,17.9175604 52.9818772,18.1548673 L52.9818772,23.0152238 C52.9818772,23.2514218 53.1748277,23.4443723 53.4121347,23.4443723 L55.3793426,23.4443723 C56.1622337,23.4443723 56.9284911,23.1216792 57.4818376,22.5594614 C58.0229861,22.0083327 58.3146297,21.2897584 58.3013228,20.535699 C58.2758178,18.9854416 56.9928079,17.7257188 55.4425505,17.7257188" id="Fill-45" fill="#424242"></path>
            <path d="M61.0946693,17.7178455 L61.0946693,17.7178455 C60.7686495,17.7178455 60.5036198,17.9828752 60.5036198,18.308895 L60.5036198,22.8598653 C60.5036198,23.1858851 60.7686495,23.4509149 61.0946693,23.4509149 C61.4206891,23.4509149 61.6868277,23.1858851 61.6868277,22.8598653 L61.6868277,18.308895 C61.6868277,17.9828752 61.4206891,17.7178455 61.0946693,17.7178455" id="Fill-47" fill="#424242"></path>
            <path d="M95.7601109,17.7178455 C95.4340911,17.7178455 95.1690614,17.9828752 95.1690614,18.308895 L95.1690614,22.8598653 C95.1690614,23.1858851 95.4340911,23.4509149 95.7601109,23.4509149 C96.0861307,23.4509149 96.3522693,23.1858851 96.3522693,22.8598653 L96.3522693,18.308895 C96.3522693,17.9828752 96.0861307,17.7178455 95.7601109,17.7178455" id="Fill-49" fill="#424242"></path>
            <path d="M72.0646812,22.2460832 L70.5410376,22.2460832 C69.9910178,22.2460832 69.5408,21.8158257 69.5141861,21.2669149 C69.5130772,21.2347564 69.5241663,21.2048158 69.5463446,21.1804198 C69.5707406,21.1560238 69.6040079,21.1416079 69.6383842,21.1416079 L71.5579089,21.1416079 C71.8828198,21.1416079 72.1600475,20.8898851 72.1766812,20.5816079 C72.1855525,20.4174891 72.1278891,20.2611327 72.0158891,20.1435881 C71.9027802,20.0238257 71.7497505,19.9584 71.5856317,19.9584 L69.6361663,19.9584 C69.5685228,19.9584 69.5130772,19.9029545 69.5130772,19.8353109 L69.5130772,19.6822812 C69.5130772,19.2043406 69.902305,18.8151129 70.3802455,18.8151129 L72.0336317,18.8151129 C72.3640871,18.8151129 72.6346614,18.5689347 72.651295,18.2551129 C72.6601663,18.0909941 72.602503,17.9346376 72.4893941,17.8159842 C72.3773941,17.6973307 72.2243644,17.631905 72.0602455,17.631905 L70.5410376,17.631905 C69.3223446,17.631905 68.3298693,18.6243802 68.3298693,19.8430733 L68.3298693,21.2170139 C68.3298693,22.4368158 69.3223446,23.4292911 70.5410376,23.4292911 L72.0779881,23.4292911 C72.2554139,23.4292911 72.4228594,23.3505584 72.5359683,23.2119446 C72.6479683,23.0744396 72.6923248,22.8925782 72.6568396,22.7151525 C72.6013941,22.4434693 72.352998,22.2460832 72.0646812,22.2460832" id="Fill-51" fill="#424242"></path>
            <path d="M79.5839842,17.7150733 L79.5839842,17.7150733 C79.2845782,17.743905 79.050598,18.0111525 79.050598,18.3249743 L79.050598,21.1937267 C79.050598,21.228103 79.0250931,21.2425188 79.014004,21.2469545 C79.0029149,21.2502812 78.9751921,21.2569347 78.951905,21.2314297 L75.9511921,17.966796 C75.8303208,17.7938059 75.6262812,17.6973307 75.416697,17.7139644 C75.1117465,17.7383604 74.8733307,18.0067168 74.8733307,18.3260832 L74.8733307,22.8338059 C74.8733307,23.1476277 75.1073109,23.4148752 75.4067168,23.4437069 C75.4255683,23.4448158 75.4444198,23.4459248 75.4632713,23.4459248 C75.6107564,23.4459248 75.752697,23.3915881 75.8624792,23.292895 C75.9855683,23.180895 76.0565386,23.0212119 76.0565386,22.8548752 L76.0565386,19.9717069 C76.0565386,19.9362218 76.0809347,19.9229149 76.0920238,19.9184792 C76.1031129,19.9140436 76.1308356,19.9073901 76.1541228,19.932895 L79.1903208,23.2363406 L79.2579644,23.306202 L79.2601822,23.3050931 C79.3854891,23.4115485 79.5473901,23.4625584 79.7126178,23.442598 C80.0098059,23.4071129 80.232697,23.1454099 80.232697,22.8338059 L80.232697,18.303905 C80.232697,18.1375683 80.1628356,17.9778851 80.0397465,17.8658851 C79.9166574,17.7538851 79.7503208,17.6995485 79.5839842,17.7150733" id="Fill-53" fill="#424242"></path>
            <path d="M50.3191604,17.7150733 L50.3191604,17.7150733 C50.0197545,17.743905 49.7857743,18.0111525 49.7857743,18.3249743 L49.7857743,21.1937267 C49.7857743,21.228103 49.7602693,21.2425188 49.7491802,21.2469545 C49.7380911,21.2502812 49.7103683,21.2569347 49.6870812,21.2314297 L46.6852594,17.966796 C46.565497,17.7938059 46.3614574,17.6973307 46.1518733,17.7139644 C45.8469228,17.7383604 45.607398,18.0067168 45.607398,18.3260832 L45.607398,22.8338059 C45.607398,23.1476277 45.8424871,23.4148752 46.1418931,23.4437069 C46.1607446,23.4448158 46.179596,23.4459248 46.1984475,23.4459248 C46.3459327,23.4459248 46.4878733,23.3915881 46.5976554,23.292895 C46.7207446,23.180895 46.7917149,23.0212119 46.7917149,22.8548752 L46.7917149,19.9717069 C46.7917149,19.9450931 46.8061307,19.9218059 46.8260911,19.9151525 C46.851596,19.9062812 46.8870812,19.9262416 46.9247842,19.9739248 L49.925497,23.2363406 L49.9931406,23.306202 L49.9953584,23.3050931 C50.1195564,23.4115485 50.2825663,23.4614495 50.4477941,23.442598 C50.7449822,23.4071129 50.9678733,23.1454099 50.9678733,22.8338059 L50.9678733,18.303905 C50.9678733,18.1375683 50.896903,17.9778851 50.7749228,17.8658851 C50.6518337,17.7538851 50.485497,17.6995485 50.3191604,17.7150733" id="Fill-55" fill="#424242"></path>
            <path d="M86.3441267,20.1700911 L85.6211168,20.1700911 C85.2906614,20.1700911 85.0189782,20.4162693 85.0034535,20.7300911 C84.9945822,20.8942099 85.0511366,21.0494574 85.1642455,21.1692198 C85.2773545,21.2878733 85.4292752,21.353299 85.5933941,21.353299 L85.6721267,21.353299 C85.7619485,21.353299 85.8362455,21.4264871 85.8362455,21.5163089 L85.8362455,21.8512 C85.8362455,21.9809426 85.7575129,22.0962693 85.6355327,22.1461703 C85.4303842,22.2293386 85.2141465,22.2725861 84.9923644,22.2725861 C84.5188594,22.2725861 84.0786218,22.0829624 83.7514931,21.7392 C83.4243644,21.3954376 83.2569188,20.9463287 83.2813149,20.4717149 C83.3245624,19.586804 84.0531168,18.8737743 84.9391366,18.8471604 C85.2862257,18.8382891 85.6222257,18.9281109 85.9105426,19.1121901 C86.1168,19.2441505 86.3740673,19.2463683 86.5659089,19.1177347 C86.7355723,19.0035168 86.8353743,18.8161109 86.8342653,18.615398 C86.8331564,18.4180119 86.7355723,18.2372594 86.5736713,18.130804 C85.9981465,17.7559921 85.3272554,17.6007446 84.6330772,17.6839129 C83.3389782,17.8391604 82.334305,18.8072396 82.1324832,20.0935762 C81.9994139,20.9396752 82.2389386,21.7946455 82.7900673,22.4389228 C83.342305,23.0854178 84.1451564,23.4557941 84.9923644,23.4557941 C85.6488396,23.4557941 86.2676119,23.2417743 86.7821465,22.8370218 C86.9296317,22.7194772 87.0183446,22.5342891 87.0183446,22.3413386 L87.0183446,20.8443089 C87.0183446,20.4728238 86.7156119,20.1700911 86.3441267,20.1700911" id="Fill-57" fill="#424242"></path>
            <path d="M110.315121,17.880301 C110.196467,17.7671921 110.039002,17.7095287 109.875992,17.7184 C109.573259,17.7350337 109.315992,18.0178059 109.315992,18.3371723 L109.315992,19.820895 C109.315992,19.9406574 109.218408,20.0393505 109.097537,20.0393505 L106.808745,20.0393505 C106.673457,20.0393505 106.562566,19.9284594 106.562566,19.7931723 L106.562566,18.3216475 C106.562566,18.0344396 106.36518,17.7849347 106.093497,17.7294891 C105.916071,17.694004 105.73421,17.7383604 105.596705,17.8514693 C105.4592,17.9645782 105.379358,18.1309149 105.379358,18.3094495 L105.379358,22.8471129 C105.379358,23.1354297 105.576745,23.3838257 105.848428,23.4392713 C106.026962,23.4736475 106.207715,23.4304 106.34522,23.3184 C106.482725,23.2052911 106.562566,23.0378455 106.562566,22.8604198 L106.562566,21.4687366 C106.562566,21.3323406 106.673457,21.2225584 106.808745,21.2225584 L109.097537,21.2225584 C109.218408,21.2225584 109.315992,21.3201426 109.315992,21.4410139 L109.315992,22.8393505 C109.315992,23.1365386 109.517814,23.3893703 109.795042,23.4414891 C109.832745,23.4481426 109.870448,23.4514693 109.907042,23.4514693 C110.044547,23.4514693 110.178725,23.4037861 110.286289,23.3150733 C110.421576,23.2019644 110.4992,23.0356277 110.4992,22.8604198 L110.4992,18.3094495 C110.4992,18.1453307 110.433774,17.9934099 110.315121,17.880301" id="Fill-59" fill="#424242"></path>
            <path d="M101.142764,20.0921347 C100.542844,19.9136 100.21017,19.615303 100.145853,19.3979564 C100.12922,19.341402 100.083754,19.191699 100.305537,18.9710257 C100.649299,18.6261545 101.337933,18.8789861 101.718289,19.0608475 C101.984428,19.1883723 102.306012,19.0996594 102.473457,18.8468277 C102.567715,18.705996 102.596547,18.5296792 102.551081,18.3655604 C102.505616,18.2014416 102.391398,18.0650455 102.238368,17.9907485 C101.704982,17.7345901 100.367636,17.2344713 99.4683089,18.133798 C99.0058931,18.5973228 98.8428832,19.1650851 99.0114376,19.7339564 C99.218804,20.4370059 100.024982,21.0868277 100.884388,21.2465109 C101.46324,21.3629465 101.699438,21.5270653 101.699438,21.8120554 C101.699438,22.0382733 101.614051,22.115897 101.549735,22.1536 C101.203754,22.3587485 100.397576,22.2678178 99.8165069,22.0615604 C99.5403881,21.9628673 99.2387644,22.0770851 99.0979327,22.3365703 C99.0158733,22.4896 99.0036752,22.6692436 99.0646653,22.8311446 C99.1267644,22.9897188 99.2531802,23.1150257 99.4128634,23.1715802 C99.9196356,23.3523327 100.467438,23.4521347 100.955358,23.4521347 C101.436626,23.4521347 101.840269,23.3567683 102.1552,23.1704713 C102.624269,22.8910257 102.882646,22.415303 102.882646,21.8309069 C102.882646,20.735303 101.889061,20.3139168 101.142764,20.0921347" id="Fill-61" fill="#424242"></path>
            <g fill="#14C8D2" id="Fill-63">
                <path d="M12.7525861,0.000110891089 L3.42110099,0.000110891089 C1.53151683,0.000110891089 0.000110891089,1.53151683 0.000110891089,3.42110099 L0.000110891089,22.0840713 C0.000110891089,23.9736554 1.53151683,25.5050614 3.42110099,25.5050614 L12.7525861,25.5050614 C19.7952792,25.5050614 25.5050614,19.7952792 25.5050614,12.7525861 C25.5050614,5.70878416 19.7952792,0.000110891089 12.7525861,0.000110891089"></path>
            </g>
            <mask id="mask-2" fill="white">
                <use xlink:href="#path-1"></use>
            </mask>
            <g id="Clip-64"></g>
            <path d="M4.51748119,10.2396832 C3.90203564,10.2396832 3.40302574,9.74067327 3.40302574,9.12522772 C3.40302574,8.50978218 3.90203564,8.01077228 4.51748119,8.01077228 C5.13292673,8.01077228 5.63193663,8.50978218 5.63193663,9.12522772 C5.63193663,9.74067327 5.13292673,10.2396832 4.51748119,10.2396832" id="Fill-65" fill="#FFFFFF" mask="url(#mask-2)"></path>
            <path d="M19.7157703,10.2396832 C19.1003248,10.2396832 18.6013149,9.74067327 18.6013149,9.12522772 C18.6013149,8.50978218 19.1003248,8.01077228 19.7157703,8.01077228 C20.3312158,8.01077228 20.8302257,8.50978218 20.8302257,9.12522772 C20.8302257,9.74067327 20.3312158,10.2396832 19.7157703,10.2396832" id="Fill-67" fill="#FFFFFF" mask="url(#mask-2)"></path>
            <path d="M12.1190653,20.9844752 C8.53950099,20.9844752 5.63748119,18.0824554 5.63748119,14.5028911 C5.63748119,10.9222178 8.53950099,8.02130693 12.1190653,8.02130693 C15.6997386,8.02130693 18.6017584,10.9222178 18.6017584,14.5028911 C18.6017584,18.0824554 15.6997386,20.9844752 12.1190653,20.9844752" id="Fill-69" fill="#FFFFFF" mask="url(#mask-2)"></path>
            <path d="M14.2405228,16.3976871 C14.0897109,16.1237861 13.8002851,16.0384 13.4864634,16.1858851 C13.4421069,16.2058455 13.2957307,16.2657267 13.130503,16.2657267 C12.6747406,16.2657267 12.6747406,15.8210535 12.6747406,15.7256871 L12.6747406,14.1610139 C12.6747406,14.1022416 12.7135525,14.0512317 12.768998,14.0312713 C13.5607604,13.7518257 14.1174337,12.9778059 14.0675327,12.0795881 C14.0120871,11.0948752 13.1992554,10.2898059 12.2134337,10.2432317 C11.0934337,10.190004 10.168602,11.0837861 10.168602,12.192697 C10.168602,13.0343604 10.7019881,13.7529347 11.450503,14.0257267 C11.5059485,14.0456871 11.5436515,14.0955881 11.5436515,14.1543604 L11.5436515,15.8920238 C11.5436515,16.8002218 12.1956911,17.3968158 13.130503,17.3968158 C13.5707406,17.3968158 13.9034139,17.2238257 13.9732752,17.1883406 C14.2682455,17.0364198 14.3913347,16.6715881 14.2405228,16.3976871" id="Fill-71" fill="#14C8D2" mask="url(#mask-2)"></path>
        </g>
    </g>
</svg>